<svg width="24" height="24" viewBox="0 0 24 24" fill="none" xmlns="http://www.w3.org/2000/svg">
  <path d="M12 4C8 4 5 7 5 11C5 15 8 18 12 18C16 18 19 15 19 11C19 7 16 4 12 4Z" stroke="#0E5FCE" stroke-width="2" stroke-linecap="round" stroke-linejoin="round"/>
  <path d="M12 11V15" stroke="#0E5FCE" stroke-width="2" stroke-linecap="round"/>
  <path d="M9 11H15" stroke="#0E5FCE" stroke-width="2" stroke-linecap="round"/>
  <path d="M7 2V4" stroke="#0E5FCE" stroke-width="2" stroke-linecap="round"/>
  <path d="M7 4C7 4 7.5 6 9 6C10.5 6 11 4 11 4" stroke="#0E5FCE" stroke-width="2" stroke-linecap="round" stroke-linejoin="round"/>
  <path d="M17 2V4" stroke="#0E5FCE" stroke-width="2" stroke-linecap="round"/>
  <path d="M16 4V6" stroke="#0E5FCE" stroke-width="2" stroke-linecap="round"/>
  <path d="M18 4V6" stroke="#0E5FCE" stroke-width="2" stroke-linecap="round"/>
</svg>
