<svg width="24" height="24" viewBox="0 0 24 24" fill="none" xmlns="http://www.w3.org/2000/svg">
  <path d="M18 4C18 4 20 6 20 9C20 12 18 14 18 14C16 12 14 10.5 12 10.5C10 10.5 8 12 8 14C8 12 6 10 4 10C4 8 5 6 7 5C7 3 9 2 11 2C13 2 15 3 16 4C17 3 18 3.5 18 4Z" stroke="#0E5FCE" stroke-width="2" stroke-linecap="round" stroke-linejoin="round"/>
  <path d="M5 16L5.5 17L6.5 17L5.8 17.8L6 19L5 18.5L4 19L4.2 17.8L3.5 17L4.5 17L5 16Z" stroke="#0E5FCE" stroke-width="1.5" stroke-linecap="round" stroke-linejoin="round"/>
  <path d="M19 18L19.3 18.8L20.2 18.8L19.6 19.4L19.8 20.3L19 19.9L18.2 20.3L18.4 19.4L17.8 18.8L18.7 18.8L19 18Z" stroke="#0E5FCE" stroke-width="1.5" stroke-linecap="round" stroke-linejoin="round"/>
  <path d="M6 20C6 20 7 21 8 21" stroke="#0E5FCE" stroke-width="1.5" stroke-linecap="round"/>
  <path d="M9 21C9 21 10 22 11 22" stroke="#0E5FCE" stroke-width="1.5" stroke-linecap="round"/>
</svg>
